<?xml version="1.0" encoding="UTF-8" standalone="no"?>
<!-- Created with Inkscape (http://www.inkscape.org/) -->

<svg
   width="21.822077mm"
   height="16.625874mm"
   viewBox="0 0 21.822077 16.625874"
   version="1.1"
   id="svg5"
   xml:space="preserve"
   inkscape:version="1.2.2 (732a01da63, 2022-12-09)"
   sodipodi:docname="logo.svg"
   xmlns:inkscape="http://www.inkscape.org/namespaces/inkscape"
   xmlns:sodipodi="http://sodipodi.sourceforge.net/DTD/sodipodi-0.dtd"
   xmlns="http://www.w3.org/2000/svg"
   xmlns:svg="http://www.w3.org/2000/svg"><sodipodi:namedview
     id="namedview7"
     pagecolor="#ffffff"
     bordercolor="#000000"
     borderopacity="0.25"
     inkscape:showpageshadow="2"
     inkscape:pageopacity="0.0"
     inkscape:pagecheckerboard="0"
     inkscape:deskcolor="#d1d1d1"
     inkscape:document-units="mm"
     showgrid="false"
     inkscape:lockguides="true"
     inkscape:zoom="3.9603435"
     inkscape:cx="37.370496"
     inkscape:cy="41.41055"
     inkscape:window-width="1366"
     inkscape:window-height="705"
     inkscape:window-x="1912"
     inkscape:window-y="112"
     inkscape:window-maximized="1"
     inkscape:current-layer="layer1" /><defs
     id="defs2" /><g
     inkscape:label="Camada 1"
     inkscape:groupmode="layer"
     id="layer1"
     transform="translate(-96.639521,-74.628358)"><path
       style="fill:#f5840f;fill-opacity:1;stroke:#0c0c0c;stroke-width:0.258329;stroke-linecap:round;stroke-linejoin:round;stroke-opacity:1"
       d="m 100.16125,81.680595 -3.392581,-4.188122 1.58565,0.167661 -0.88539,-2.902664 3.415501,4.498709 -1.575421,-0.313126 z"
       id="path3391-7-2" /><path
       style="fill:#f5840f;fill-opacity:1;stroke:#0c0c0c;stroke-width:0.264583;stroke-linecap:round;stroke-linejoin:round;stroke-opacity:1"
       d="m 99.380659,81.9194 c 0,0 -0.19092,-1.288701 0.906861,-1.718268 l 0.90687,-0.238649 c 0,0 0.62049,-1.71827 2.2433,-1.193243 l 0.76367,0.238649 0.62049,-0.715946 c 0,0 1.33643,-0.954594 2.62513,0.668216 0,0 1.57508,-0.668216 2.62514,1.050053 0,0 2.19556,0.04773 2.14783,1.861459 0,0 1.67054,0.381838 0.71595,2.768323 0,0 0.33411,1.57508 -1.19324,2.052377 0,0 0.57275,2.100108 -2.7206,2.147837 0,0 -1.47962,-0.190919 -2.48194,-1.336432 0,0 -1.24097,0.572757 -2.2433,-0.04773 0,0 -2.5774,0.286379 -2.62513,-1.47962"
       id="path233"
       sodipodi:nodetypes="ccccccccccccccc" /><path
       style="fill:#f5840f;fill-opacity:1;stroke:#0c0c0c;stroke-width:0.264583;stroke-linecap:round;stroke-linejoin:round;stroke-opacity:1"
       d="m 104.20136,87.456047 c 0,0 0.57276,-0.715946 0.57276,-1.097782"
       id="path1236" /><path
       style="fill:#f5840f;fill-opacity:1;stroke:#0c0c0c;stroke-width:0.264583;stroke-linecap:round;stroke-linejoin:round;stroke-opacity:1"
       d="m 106.3492,87.599236 c 0,0 0.8114,-0.906864 0.85913,-1.240971"
       id="path1238"
       sodipodi:nodetypes="cc" /><path
       style="fill:#f5840f;fill-opacity:1;stroke:#0c0c0c;stroke-width:0.264583;stroke-linecap:round;stroke-linejoin:round;stroke-opacity:1"
       d="m 106.87422,85.737777 c 0,0 0.14319,1.384163 1.76601,1.097785 0,0 1.81373,-0.04773 1.47962,-1.81373"
       id="path1240"
       sodipodi:nodetypes="ccc" /><path
       style="fill:#f5840f;fill-opacity:1;stroke:#0c0c0c;stroke-width:0.264583;stroke-linecap:round;stroke-linejoin:round;stroke-opacity:1"
       d="m 109.26071,84.639994 c 0,0 1.14551,1.145514 1.95692,-0.954592"
       id="path1242" /><path
       style="fill:#f5840f;fill-opacity:1;stroke:#0c0c0c;stroke-width:0.264583;stroke-linecap:round;stroke-linejoin:round;stroke-opacity:1"
       d="m 110.02439,86.071885 c 0,0 1.19079,1.002813 1.859,0.525516"
       id="path1244"
       sodipodi:nodetypes="cc" /><path
       style="fill:#f5840f;fill-opacity:1;stroke:#0c0c0c;stroke-width:0.264583;stroke-linecap:round;stroke-linejoin:round;stroke-opacity:1"
       d="m 101.62396,86.071885 c -2.386491,0.429567 -2.100111,-1.765999 -2.100111,-1.765999 0,0 -1.86146,-0.763675 -0.0478,-2.434215 l 0.620531,0.668216"
       id="path1246"
       sodipodi:nodetypes="cccc" /><path
       style="fill:#f5840f;fill-opacity:1;stroke:#0c0c0c;stroke-width:0.264583;stroke-linecap:round;stroke-linejoin:round;stroke-opacity:1"
       d="M 99.428389,84.305886 100.09661,83.73313"
       id="path1248" /><path
       style="fill:#f5840f;fill-opacity:1;stroke:#0c0c0c;stroke-width:0.264583;stroke-linecap:round;stroke-linejoin:round;stroke-opacity:1"
       d="m 101.24212,79.867025 -0.0477,0.954593"
       id="path1250" /><path
       style="fill:#f5840f;fill-opacity:1;stroke:#0c0c0c;stroke-width:0.264583;stroke-linecap:round;stroke-linejoin:round;stroke-opacity:1"
       d="m 104.05817,78.96016 0.76368,0.572757"
       id="path1252" /><path
       style="fill:#f5840f;fill-opacity:1;stroke:#0c0c0c;stroke-width:0.264583;stroke-linecap:round;stroke-linejoin:round;stroke-opacity:1"
       d="m 107.49471,78.864698 c 0,0 -0.66822,0.811406 -0.57276,1.145514"
       id="path1254"
       sodipodi:nodetypes="cc" /><path
       style="fill:#f5840f;fill-opacity:1;stroke:#0c0c0c;stroke-width:0.264583;stroke-linecap:round;stroke-linejoin:round;stroke-opacity:1"
       d="m 106.49239,80.582968 c 0,0 1.00232,-1.527349 2.43421,0.23865 0,0 2.2433,1.002323 0.0477,2.338755 0,0 -0.62049,1.956919 -2.33876,0.668216 0,0 -0.62049,2.147837 -2.43422,0.811405"
       id="path1256"
       sodipodi:nodetypes="ccccc" /><path
       style="fill:#f5840f;fill-opacity:1;stroke:#0c0c0c;stroke-width:0.264583;stroke-linecap:round;stroke-linejoin:round;stroke-opacity:1"
       d="m 108.97433,80.726159 c 0,0 1.09778,-0.906865 1.43189,-0.715947"
       id="path1258" /><path
       style="fill:#f5840f;fill-opacity:1;stroke:#0c0c0c;stroke-width:0.264583;stroke-linecap:round;stroke-linejoin:round;stroke-opacity:1"
       d="m 107.6379,82.253508 c 0,0 -1.2887,-1.813729 -2.91151,0.429567 0,0 -2.2433,-1.002323 -2.14784,1.622811 0,0 -1.00232,0.238649 -0.90686,1.861459"
       id="path1260" /><path
       style="fill:#f5840f;fill-opacity:1;stroke:#0c0c0c;stroke-width:0.264583;stroke-linecap:round;stroke-linejoin:round;stroke-opacity:1"
       d="m 101.76714,85.117292 c 0,0 -1.67053,-1.479621 -0.19091,-2.291027 0,0 -0.42957,-1.813728 1.33643,-1.384161 0,0 0.4773,-1.861459 1.62281,-0.620487"
       id="path1262"
       sodipodi:nodetypes="cccc" /><path
       style="fill:#f5840f;fill-opacity:1;stroke:#0c0c0c;stroke-width:0.264583;stroke-linecap:round;stroke-linejoin:round;stroke-opacity:1"
       d="m 112.12449,84.114968 0.76368,0.668216"
       id="path1264" /><path
       style="fill:#f5840f;fill-opacity:1;stroke:#0c0c0c;stroke-width:0.264583;stroke-linecap:round;stroke-linejoin:round;stroke-opacity:1"
       d="m 111.45628,82.06259 0.90833,-0.09644"
       id="path1266"
       sodipodi:nodetypes="cc" /><path
       style="fill:#f5840f;fill-opacity:1;stroke:#0c0c0c;stroke-width:0.264583;stroke-linecap:round;stroke-linejoin:round;stroke-opacity:1"
       d="m 105.25141,87.742424 c 0,0 1.52736,1.193244 1.95692,2.911513 0,0 0.81141,1.145514 1.33644,-0.143189 l 0.0955,-1.718269 -1.3842,-0.620487 -0.85914,-0.572756 z"
       id="path1268"
       sodipodi:nodetypes="cccc" /><path
       style="fill:#f5840f;fill-opacity:1;stroke:#0c0c0c;stroke-width:0.264583;stroke-linecap:round;stroke-linejoin:round;stroke-opacity:1"
       d="m 113.12682,82.205778 4.77297,-2.529673 -1.52735,-0.525026 1.95691,-2.386486 -4.91616,2.816053 1.57508,0.381836 z"
       id="path3391" /><path
       style="fill:#f5840f;fill-opacity:1;stroke:#0c0c0c;stroke-width:0.264583;stroke-linecap:round;stroke-linejoin:round;stroke-opacity:1"
       d="m 110.23986,81.913413 3.50193,-4.113029 -1.61329,0.07592 0.93765,-2.940344 -3.52928,4.432042 1.60479,-0.226614 z"
       id="path3391-7" /><path
       style="fill:#f5840f;fill-opacity:1;stroke:#0c0c0c;stroke-width:0.264583;stroke-linecap:round;stroke-linejoin:round;stroke-opacity:1"
       d="m 103.95341,82.488255 c 0,0 -1.55893,-0.188963 -1.36997,1.795139"
       id="path3437"
       sodipodi:nodetypes="cc" /><path
       style="fill:#f5840f;fill-opacity:1;stroke:#0c0c0c;stroke-width:0.264583;stroke-linecap:round;stroke-linejoin:round;stroke-opacity:1"
       d="m 102.63068,84.330633 c 0,0 -1.13377,0 -0.94481,1.747901"
       id="path3439" /></g></svg>
